<svg xmlns="http://www.w3.org/2000/svg" viewBox="-1 -1.5 18 18" shape-rendering="crispEdges">
  <rect x="-1" y="-1.5" width="18" height="18" rx="3.5" fill="#080808"/>
  <rect x="5" y="0" width="6" height="1" fill="#00ff40"/>
  <rect x="3" y="1" width="10" height="1" fill="#00ff40"/>
  <rect x="2" y="2" width="4" height="1" fill="#00ff40"/>
  <rect x="10" y="2" width="4" height="1" fill="#00ff40"/>
  <rect x="1" y="3" width="3" height="1" fill="#00ff40"/>
  <rect x="12" y="3" width="3" height="1" fill="#00ff40"/>
  <rect x="1" y="4" width="3" height="1" fill="#00ff40"/>
  <rect x="5" y="4" width="2" height="1" fill="#ffffff"/>
  <rect x="9" y="4" width="2" height="1" fill="#ffffff"/>
  <rect x="12" y="4" width="3" height="1" fill="#00ff40"/>
  <rect x="1" y="5" width="3" height="1" fill="#00ff40"/>
  <rect x="5" y="5" width="2" height="1" fill="#ffffff"/>
  <rect x="9" y="5" width="2" height="1" fill="#ffffff"/>
  <rect x="12" y="5" width="3" height="1" fill="#00ff40"/>
  <rect x="1" y="6" width="14" height="1" fill="#00ff40"/>
  <rect x="1" y="7" width="14" height="1" fill="#00ff40"/>
  <rect x="2" y="8" width="4" height="1" fill="#00ff40"/>
  <rect x="10" y="8" width="4" height="1" fill="#00ff40"/>
  <rect x="3" y="9" width="2" height="1" fill="#00ff40"/>
  <rect x="7" y="9" width="2" height="1" fill="#00ff40"/>
  <rect x="11" y="9" width="2" height="1" fill="#00ff40"/>
  <rect x="4" y="10" width="2" height="1" fill="#00ff40"/>
  <rect x="10" y="10" width="2" height="1" fill="#00ff40"/>
  <rect x="4" y="11" width="2" height="1" fill="#00ff40"/>
  <rect x="10" y="11" width="2" height="1" fill="#00ff40"/>
  <rect x="3" y="12" width="4" height="1" fill="#00ff40"/>
  <rect x="9" y="12" width="4" height="1" fill="#00ff40"/>
  <rect x="3" y="13" width="2" height="1" fill="#00ff40"/>
  <rect x="11" y="13" width="2" height="1" fill="#00ff40"/>
  <rect x="3" y="14" width="1" height="1" fill="#00ff40"/>
  <rect x="12" y="14" width="1" height="1" fill="#00ff40"/>
</svg>
